# xmcd CD database file
#
# Track frame offsets:
#	150
#	16543
#	37283
#	66878
#	88697
#	109086
#	127800
#	150809
#	169874
#	195327
#	216282
#	232014
#	248243
#	268638
#	296893
#	318144
#
# Disc length: 4466 seconds
#
# Revision: 0
# Processed by: cddbd v1.5.2PL0 Copyright (c) Steve Scherf et al.
# Submitted via: CDex 1.51
#
DISCID=d7117010
DTITLE=Antony Santos - Lo Mas Nuevo y Lo Mejor
DYEAR=2007
DGENRE=Merengue
TTITLE0=Vete y Alejate de Mi
TTITLE1=La Boquita Colora
TTITLE2=Y Antes de Irme
TTITLE3=La Juma
TTITLE4=No Nos Vamos a Olvidar
TTITLE5=Toma y Dame
TTITLE6=Viejo Amor
TTITLE7=Preparate
TTITLE8=Lloro
TTITLE9=Ay Ven
TTITLE10=Anda y Matame
TTITLE11=Amorcito Ven
TTITLE12=Anoche Soñe Contigo
TTITLE13=Pegame tu Vicio
TTITLE14=Por Mi Timidez
TTITLE15=Voy Pa Ya
EXTD=YEAR: 2007
EXTT0=
EXTT1=
EXTT2=
EXTT3=
EXTT4=
EXTT5=
EXTT6=
EXTT7=
EXTT8=
EXTT9=
EXTT10=
EXTT11=
EXTT12=
EXTT13=
EXTT14=
EXTT15=
PLAYORDER=
